<?xml version="1.0" encoding="iso-8859-1"?>
<!-- Generator: Adobe Illustrator 19.0.0, SVG Export Plug-In . SVG Version: 6.00 Build 0)  -->
<svg version="1.1" id="Layer_1" xmlns="http://www.w3.org/2000/svg" xmlns:xlink="http://www.w3.org/1999/xlink" x="0px" y="0px"
	 viewBox="0 0 512 512" style="enable-background:new 0 0 512 512;" xml:space="preserve">
<circle style="fill:#273B7A;" cx="256" cy="256" r="256"/>
<path style="fill:#121149;" d="M300.484,508.138c115.266-20.197,203.983-117.498,211.044-236.777L391.654,151.488l-52.641,145.358
	l-218.209,31.615L300.484,508.138z"/>
<path style="fill:#71E2EF;" d="M377.391,145.811H134.608c-11.504,0-20.83,9.326-20.83,20.83v146.248
	c0,11.505,9.326,20.83,20.832,20.83h92.946l19.851,37.197c3.668,6.873,13.521,6.873,17.187,0l19.851-37.197h92.948
	c11.505,0,20.83-9.326,20.83-20.83V166.641C398.222,155.138,388.896,145.811,377.391,145.811z"/>
<path style="fill:#38C6D9;" d="M377.391,145.811H255.424v230.224c3.567,0.207,7.23-1.486,9.168-5.118l19.853-37.198h92.948
	c11.505,0,20.83-9.326,20.83-20.83V166.641C398.222,155.138,388.896,145.811,377.391,145.811z"/>
<g>
	<rect x="170.667" y="196.525" style="fill:#273B7A;" width="170.667" height="5.172"/>
	<rect x="170.667" y="224.97" style="fill:#273B7A;" width="170.667" height="5.172"/>
	<rect x="170.667" y="253.414" style="fill:#273B7A;" width="170.667" height="5.172"/>
	<rect x="170.667" y="281.859" style="fill:#273B7A;" width="170.667" height="5.172"/>
</g>
<g>
	<rect x="255.431" y="196.525" style="fill:#121149;" width="85.907" height="5.172"/>
	<rect x="255.431" y="224.97" style="fill:#121149;" width="85.907" height="5.172"/>
	<rect x="255.431" y="253.414" style="fill:#121149;" width="85.907" height="5.172"/>
	<rect x="255.431" y="281.859" style="fill:#121149;" width="85.907" height="5.172"/>
</g>
<g>
</g>
<g>
</g>
<g>
</g>
<g>
</g>
<g>
</g>
<g>
</g>
<g>
</g>
<g>
</g>
<g>
</g>
<g>
</g>
<g>
</g>
<g>
</g>
<g>
</g>
<g>
</g>
<g>
</g>
</svg>
